<mxfile host="app.diagrams.net" agent="Mozilla/5.0 (Windows NT 10.0; Win64; x64) AppleWebKit/537.36 (KHTML, like Gecko) Chrome/140.0.0.0 Safari/537.36" version="28.0.9">
  <diagram name="Page-1" id="JpLjQRSs1_Y3-2fLoofl">
    <mxGraphModel dx="868" dy="468" grid="1" gridSize="10" guides="1" tooltips="1" connect="1" arrows="1" fold="1" page="1" pageScale="1" pageWidth="850" pageHeight="1100" math="0" shadow="0">
      <root>
        <mxCell id="0" />
        <mxCell id="1" parent="0" />
        <mxCell id="bUwDgFJh5-zK0ynBWb4o-1" value="" style="rounded=0;whiteSpace=wrap;html=1;" vertex="1" parent="1">
          <mxGeometry x="70" y="70" width="620" height="510" as="geometry" />
        </mxCell>
        <mxCell id="bUwDgFJh5-zK0ynBWb4o-3" value="&amp;lt;data-platform&amp;gt;&lt;br&gt;Delivery Notification&lt;br&gt;Worker" style="aspect=fixed;sketch=0;html=1;dashed=0;whitespace=wrap;verticalLabelPosition=bottom;verticalAlign=top;fillColor=#2875E2;strokeColor=#ffffff;points=[[0.005,0.63,0],[0.1,0.2,0],[0.9,0.2,0],[0.5,0,0],[0.995,0.63,0],[0.72,0.99,0],[0.5,1,0],[0.28,0.99,0]];shape=mxgraph.kubernetes.icon2;prIcon=api" vertex="1" parent="1">
          <mxGeometry x="130" y="90" width="50" height="48" as="geometry" />
        </mxCell>
        <mxCell id="bUwDgFJh5-zK0ynBWb4o-6" value="&amp;lt;foundation&amp;gt;&lt;br&gt;Message&lt;div&gt;Queues&lt;br&gt;&lt;/div&gt;" style="aspect=fixed;sketch=0;html=1;dashed=0;whitespace=wrap;verticalLabelPosition=bottom;verticalAlign=top;fillColor=#2875E2;strokeColor=#ffffff;points=[[0.005,0.63,0],[0.1,0.2,0],[0.9,0.2,0],[0.5,0,0],[0.995,0.63,0],[0.72,0.99,0],[0.5,1,0],[0.28,0.99,0]];shape=mxgraph.kubernetes.icon2;prIcon=api" vertex="1" parent="1">
          <mxGeometry x="350" y="90" width="50" height="48" as="geometry" />
        </mxCell>
        <mxCell id="bUwDgFJh5-zK0ynBWb4o-7" style="edgeStyle=orthogonalEdgeStyle;rounded=0;orthogonalLoop=1;jettySize=auto;html=1;entryX=0.016;entryY=0.502;entryDx=0;entryDy=0;entryPerimeter=0;" edge="1" parent="1" source="bUwDgFJh5-zK0ynBWb4o-3" target="bUwDgFJh5-zK0ynBWb4o-6">
          <mxGeometry relative="1" as="geometry" />
        </mxCell>
        <mxCell id="bUwDgFJh5-zK0ynBWb4o-8" value="Text" style="edgeLabel;html=1;align=center;verticalAlign=middle;resizable=0;points=[];" vertex="1" connectable="0" parent="bUwDgFJh5-zK0ynBWb4o-7">
          <mxGeometry x="-0.0952" y="-4" relative="1" as="geometry">
            <mxPoint x="-1" as="offset" />
          </mxGeometry>
        </mxCell>
        <mxCell id="bUwDgFJh5-zK0ynBWb4o-9" value="&lt;code&gt;&lt;font style=&quot;color: rgb(255, 179, 102);&quot;&gt;POST&lt;/font&gt;&lt;br&gt;delivery&lt;br&gt;Update&lt;br&gt;Notification&lt;/code&gt;&lt;div&gt;&lt;code&gt;endpoint&lt;/code&gt;&lt;/div&gt;" style="edgeLabel;html=1;align=center;verticalAlign=middle;resizable=0;points=[];" vertex="1" connectable="0" parent="bUwDgFJh5-zK0ynBWb4o-7">
          <mxGeometry x="-0.0613" y="-4" relative="1" as="geometry">
            <mxPoint x="-1" as="offset" />
          </mxGeometry>
        </mxCell>
        <mxCell id="bUwDgFJh5-zK0ynBWb4o-18" style="edgeStyle=orthogonalEdgeStyle;rounded=0;orthogonalLoop=1;jettySize=auto;html=1;entryX=0.5;entryY=0;entryDx=0;entryDy=0;exitX=0.995;exitY=0.63;exitDx=0;exitDy=0;exitPerimeter=0;" edge="1" parent="1" source="bUwDgFJh5-zK0ynBWb4o-11" target="bUwDgFJh5-zK0ynBWb4o-15">
          <mxGeometry relative="1" as="geometry">
            <Array as="points">
              <mxPoint x="660" y="120" />
              <mxPoint x="660" y="230" />
              <mxPoint x="375" y="230" />
            </Array>
          </mxGeometry>
        </mxCell>
        <mxCell id="bUwDgFJh5-zK0ynBWb4o-26" value="gRPC" style="edgeLabel;html=1;align=center;verticalAlign=middle;resizable=0;points=[];" vertex="1" connectable="0" parent="bUwDgFJh5-zK0ynBWb4o-18">
          <mxGeometry x="0.1781" y="-3" relative="1" as="geometry">
            <mxPoint as="offset" />
          </mxGeometry>
        </mxCell>
        <mxCell id="bUwDgFJh5-zK0ynBWb4o-11" value="&amp;lt;foundation&amp;gt;&lt;br&gt;Live&lt;div&gt;Truck&lt;/div&gt;&lt;div&gt;Notification&lt;/div&gt;&lt;div&gt;Worker&lt;div&gt;&lt;br&gt;&lt;/div&gt;&lt;/div&gt;" style="aspect=fixed;sketch=0;html=1;dashed=0;whitespace=wrap;verticalLabelPosition=bottom;verticalAlign=top;fillColor=#2875E2;strokeColor=#ffffff;points=[[0.005,0.63,0],[0.1,0.2,0],[0.9,0.2,0],[0.5,0,0],[0.995,0.63,0],[0.72,0.99,0],[0.5,1,0],[0.28,0.99,0]];shape=mxgraph.kubernetes.icon2;prIcon=api" vertex="1" parent="1">
          <mxGeometry x="590" y="90" width="50" height="48" as="geometry" />
        </mxCell>
        <mxCell id="bUwDgFJh5-zK0ynBWb4o-12" style="edgeStyle=orthogonalEdgeStyle;rounded=0;orthogonalLoop=1;jettySize=auto;html=1;entryX=-0.049;entryY=0.499;entryDx=0;entryDy=0;entryPerimeter=0;" edge="1" parent="1" source="bUwDgFJh5-zK0ynBWb4o-6" target="bUwDgFJh5-zK0ynBWb4o-11">
          <mxGeometry relative="1" as="geometry" />
        </mxCell>
        <mxCell id="bUwDgFJh5-zK0ynBWb4o-13" value="Delivery&lt;br&gt;Update&lt;br&gt;Notification&lt;br&gt;LiveTruck&lt;br&gt;Queue" style="edgeLabel;html=1;align=center;verticalAlign=middle;resizable=0;points=[];" vertex="1" connectable="0" parent="bUwDgFJh5-zK0ynBWb4o-12">
          <mxGeometry x="-0.0236" y="-5" relative="1" as="geometry">
            <mxPoint as="offset" />
          </mxGeometry>
        </mxCell>
        <mxCell id="bUwDgFJh5-zK0ynBWb4o-15" value="" style="rounded=0;whiteSpace=wrap;html=1;" vertex="1" parent="1">
          <mxGeometry x="90" y="300" width="570" height="250" as="geometry" />
        </mxCell>
        <mxCell id="bUwDgFJh5-zK0ynBWb4o-17" value="&amp;lt;foundation&amp;gt;&lt;br&gt;Subscriptions API&lt;br&gt;&lt;div&gt;&lt;div&gt;&lt;br&gt;&lt;/div&gt;&lt;/div&gt;" style="aspect=fixed;sketch=0;html=1;dashed=0;whitespace=wrap;verticalLabelPosition=bottom;verticalAlign=top;fillColor=#2875E2;strokeColor=#ffffff;points=[[0.005,0.63,0],[0.1,0.2,0],[0.9,0.2,0],[0.5,0,0],[0.995,0.63,0],[0.72,0.99,0],[0.5,1,0],[0.28,0.99,0]];shape=mxgraph.kubernetes.icon2;prIcon=api" vertex="1" parent="1">
          <mxGeometry x="130" y="330" width="50" height="48" as="geometry" />
        </mxCell>
        <mxCell id="bUwDgFJh5-zK0ynBWb4o-19" value="&amp;lt;foundation&amp;gt;&lt;br&gt;Configurations API&lt;br&gt;&lt;div&gt;&lt;div&gt;&lt;br&gt;&lt;/div&gt;&lt;/div&gt;" style="aspect=fixed;sketch=0;html=1;dashed=0;whitespace=wrap;verticalLabelPosition=bottom;verticalAlign=top;fillColor=#2875E2;strokeColor=#ffffff;points=[[0.005,0.63,0],[0.1,0.2,0],[0.9,0.2,0],[0.5,0,0],[0.995,0.63,0],[0.72,0.99,0],[0.5,1,0],[0.28,0.99,0]];shape=mxgraph.kubernetes.icon2;prIcon=api" vertex="1" parent="1">
          <mxGeometry x="240" y="330" width="50" height="48" as="geometry" />
        </mxCell>
        <mxCell id="bUwDgFJh5-zK0ynBWb4o-20" value="&amp;lt;foundation&amp;gt;&lt;br&gt;Deliveries API&lt;br&gt;&lt;div&gt;&lt;div&gt;&lt;br&gt;&lt;/div&gt;&lt;/div&gt;" style="aspect=fixed;sketch=0;html=1;dashed=0;whitespace=wrap;verticalLabelPosition=bottom;verticalAlign=top;fillColor=#2875E2;strokeColor=#ffffff;points=[[0.005,0.63,0],[0.1,0.2,0],[0.9,0.2,0],[0.5,0,0],[0.995,0.63,0],[0.72,0.99,0],[0.5,1,0],[0.28,0.99,0]];shape=mxgraph.kubernetes.icon2;prIcon=api" vertex="1" parent="1">
          <mxGeometry x="350" y="330" width="50" height="48" as="geometry" />
        </mxCell>
        <mxCell id="bUwDgFJh5-zK0ynBWb4o-21" value="&amp;lt;foundation&amp;gt;&lt;br&gt;Orders API&lt;br&gt;&lt;div&gt;&lt;div&gt;&lt;br&gt;&lt;/div&gt;&lt;/div&gt;" style="aspect=fixed;sketch=0;html=1;dashed=0;whitespace=wrap;verticalLabelPosition=bottom;verticalAlign=top;fillColor=#2875E2;strokeColor=#ffffff;points=[[0.005,0.63,0],[0.1,0.2,0],[0.9,0.2,0],[0.5,0,0],[0.995,0.63,0],[0.72,0.99,0],[0.5,1,0],[0.28,0.99,0]];shape=mxgraph.kubernetes.icon2;prIcon=api" vertex="1" parent="1">
          <mxGeometry x="460" y="330" width="50" height="48" as="geometry" />
        </mxCell>
        <mxCell id="bUwDgFJh5-zK0ynBWb4o-22" value="&amp;lt;foundation&amp;gt;&lt;br&gt;Identity API&lt;br&gt;&lt;div&gt;&lt;div&gt;&lt;br&gt;&lt;/div&gt;&lt;/div&gt;" style="aspect=fixed;sketch=0;html=1;dashed=0;whitespace=wrap;verticalLabelPosition=bottom;verticalAlign=top;fillColor=#2875E2;strokeColor=#ffffff;points=[[0.005,0.63,0],[0.1,0.2,0],[0.9,0.2,0],[0.5,0,0],[0.995,0.63,0],[0.72,0.99,0],[0.5,1,0],[0.28,0.99,0]];shape=mxgraph.kubernetes.icon2;prIcon=api" vertex="1" parent="1">
          <mxGeometry x="570" y="330" width="50" height="48" as="geometry" />
        </mxCell>
        <mxCell id="bUwDgFJh5-zK0ynBWb4o-25" value="&amp;lt;foundation&amp;gt;&lt;br&gt;Push Message Worker&lt;br&gt;&lt;div&gt;&lt;div&gt;&lt;br&gt;&lt;/div&gt;&lt;/div&gt;" style="aspect=fixed;sketch=0;html=1;dashed=0;whitespace=wrap;verticalLabelPosition=bottom;verticalAlign=top;fillColor=#2875E2;strokeColor=#ffffff;points=[[0.005,0.63,0],[0.1,0.2,0],[0.9,0.2,0],[0.5,0,0],[0.995,0.63,0],[0.72,0.99,0],[0.5,1,0],[0.28,0.99,0]];shape=mxgraph.kubernetes.icon2;prIcon=api" vertex="1" parent="1">
          <mxGeometry x="130" y="440" width="50" height="48" as="geometry" />
        </mxCell>
      </root>
    </mxGraphModel>
  </diagram>
</mxfile>
